<svg xmlns="http://www.w3.org/2000/svg" version="1.1" xmlns:xlink="http://www.w3.org/1999/xlink" width="200" height="200"><svg width="200" height="200" viewBox="0 0 200 200" fill="none" xmlns="http://www.w3.org/2000/svg">
  <!-- Background gradient -->
  <defs>
    <linearGradient id="SvgjsLinearGradient1006" x1="0%" y1="0%" x2="100%" y2="100%">
      <stop offset="0%" stop-color="#1a2a6c"></stop>
      <stop offset="50%" stop-color="#b21f1f"></stop>
      <stop offset="100%" stop-color="#fdbb2d"></stop>
    </linearGradient>
    <linearGradient id="SvgjsLinearGradient1005" x1="0%" y1="0%" x2="0%" y2="100%">
      <stop offset="0%" stop-color="#222"></stop>
      <stop offset="100%" stop-color="#444"></stop>
    </linearGradient>
    <filter id="SvgjsFilter1004" x="-20%" y="-20%" width="140%" height="140%">
      <feDropShadow dx="0" dy="2" stdDeviation="4" flood-opacity="0.3"></feDropShadow>
    </filter>
  </defs>
  
  <!-- Background circle -->
  <circle cx="100" cy="100" r="95" fill="url(#bgGradient)" filter="url(#shadow)"></circle>
  <circle cx="100" cy="100" r="92" fill="#fff" opacity="0.9"></circle>
  
  <!-- Race track -->
  <ellipse cx="100" cy="125" rx="75" ry="30" stroke="url(#trackGradient)" stroke-width="4" fill="none"></ellipse>
  <ellipse cx="100" cy="125" rx="75" ry="30" stroke="#000" stroke-width="1" stroke-dasharray="2 3" fill="none"></ellipse>
  
  <!-- Horse silhouette - bigger and more visible -->
  <g filter="url(#shadow)">
    <!-- Running horse - more visible and pronounced -->
    <path d="M140,95 c-10,-10 -20,-5 -25,0 c-5,5 -5,15 0,20 c-20,-5 -30,-10 -35,-15 c-5,-5 -5,-10 -10,-15 c-5,-5 -10,-5 -15,0 c-5,5 -5,10 0,15 c5,5 15,10 20,10 c5,0 10,-5 10,0 c0,5 -5,10 -10,15 c-5,5 -10,5 -15,0 c-5,-5 -15,-10 -20,-5 c-5,5 0,10 5,10 c5,0 10,0 15,0 c5,0 10,5 15,5 c5,0 10,-5 15,-10 c5,-5 15,-5 25,0 c10,5 20,10 30,0 c10,-10 15,-20 0,-20 z" fill="#000000" stroke="#000000" stroke-width="1.5"></path>
    
    <!-- Second horse for the racing effect - slightly behind -->
    <path d="M110,105 c-10,-10 -20,-5 -25,0 c-5,5 -5,15 0,20 c-20,-5 -30,-10 -35,-15 c-5,-5 -5,-10 -10,-15 c-5,-5 -10,-5 -15,0 c-5,5 -5,10 0,15 c5,5 15,10 20,10 c5,0 10,-5 10,0 c0,5 -5,10 -10,15 c-5,5 -10,5 -15,0 c-5,-5 -15,-10 -20,-5 c-5,5 0,10 5,10 c5,0 10,0 15,0 c5,0 10,5 15,5 c5,0 10,-5 15,-10 c5,-5 15,-5 25,0 c10,5 20,10 30,0 c10,-10 15,-20 0,-20 z" fill="#333333" stroke="#333333" stroke-width="1" opacity="0.7"></path>
  </g>
  
  <!-- Finish line with animation -->
  <g transform="translate(135, 95)">
    <rect width="6" height="60" fill="#222"></rect>
    <rect x="1" y="0" width="4" height="60" fill="#fff" stroke="none" stroke-dasharray="5 5">
      <animate attributeName="height" values="60;0;60" dur="3s" repeatCount="indefinite"></animate>
    </rect>
  </g>
</svg><style>@media (prefers-color-scheme: light) { :root { filter: none; } }
@media (prefers-color-scheme: dark) { :root { filter: none; } }
</style></svg>